<?xml version="1.0" encoding="UTF-8" standalone="no"?><!DOCTYPE svg PUBLIC "-//W3C//DTD SVG 1.1//EN" "http://www.w3.org/Graphics/SVG/1.1/DTD/svg11.dtd"><!-- Generated by graphviz version 2.40.1 (20161225.0304)
 --><!-- Title: G Pages: 1 --><svg xmlns="http://www.w3.org/2000/svg" xmlns:xlink="http://www.w3.org/1999/xlink" width="250pt" height="260pt" viewBox="0.00 0.00 249.91 260.00">
<g id="graph0" class="graph" transform="scale(1 1) rotate(0) translate(4 256)">
<title>G</title>
<polygon fill="#ffffff" stroke="transparent" points="-4,4 -4,-256 245.9106,-256 245.9106,4 -4,4"/>
<!-- ledController -->
<g id="node1" class="node">
<title>ledController</title>
<ellipse fill="none" stroke="#000000" cx="141.2045" cy="-18" rx="63.6793" ry="18"/>
<text text-anchor="middle" x="141.2045" y="-13.8" font-family="Times,serif" font-size="14.00" fill="#000000">led-controller</text>
</g>
<!-- webhook -->
<g id="node2" class="node">
<title>webhook</title>
<ellipse fill="none" stroke="#000000" cx="76.2045" cy="-90" rx="76.4095" ry="18"/>
<text text-anchor="middle" x="76.2045" y="-85.8" font-family="Times,serif" font-size="14.00" fill="#000000">sensor: webhook</text>
</g>
<!-- webhook&#45;&gt;ledController -->
<g id="edge3" class="edge">
<title>webhook-&gt;ledController</title>
<path fill="none" stroke="#000000" d="M92.2719,-72.2022C100.1432,-63.4832 109.7597,-52.8311 118.3778,-43.2849"/>
<polygon fill="#000000" stroke="#000000" points="121.2188,-45.3611 125.3219,-35.593 116.0229,-40.6704 121.2188,-45.3611"/>
</g>
<!-- sensor -->
<g id="node3" class="node">
<title>sensor</title>
<ellipse fill="none" stroke="#000000" cx="206.2045" cy="-90" rx="35.9135" ry="18"/>
<text text-anchor="middle" x="206.2045" y="-85.8" font-family="Times,serif" font-size="14.00" fill="#000000">sensor</text>
</g>
<!-- sensor&#45;&gt;ledController -->
<g id="edge1" class="edge">
<title>sensor-&gt;ledController</title>
<path fill="none" stroke="#000000" d="M191.1288,-73.3008C183.0797,-64.3848 173.006,-53.2264 164.0196,-43.2722"/>
<polygon fill="#000000" stroke="#000000" points="166.4043,-40.6905 157.1053,-35.6132 161.2084,-45.3813 166.4043,-40.6905"/>
</g>
<!-- prometheus -->
<g id="node4" class="node">
<title>prometheus</title>
<ellipse fill="none" stroke="#000000" cx="76.2045" cy="-234" rx="56.1802" ry="18"/>
<text text-anchor="middle" x="76.2045" y="-229.8" font-family="Times,serif" font-size="14.00" fill="#000000">prometheus</text>
</g>
<!-- prometheus&#45;&gt;webhook -->
<g id="edge5" class="edge">
<title>prometheus-&gt;webhook</title>
<path fill="none" stroke="#000000" d="M65.5776,-216.2017C60.1043,-205.9924 54.0044,-192.7123 51.2045,-180 47.7629,-164.3745 47.7629,-159.6255 51.2045,-144 53.185,-135.0081 56.8166,-125.7321 60.7096,-117.4596"/>
<polygon fill="#000000" stroke="#000000" points="63.9561,-118.7939 65.3165,-108.2867 57.7007,-115.6522 63.9561,-118.7939"/>
</g>
<!-- alertmanager -->
<g id="node5" class="node">
<title>alertmanager</title>
<ellipse fill="none" stroke="#000000" cx="121.2045" cy="-162" rx="61.3723" ry="18"/>
<text text-anchor="middle" x="121.2045" y="-157.8" font-family="Times,serif" font-size="14.00" fill="#000000">alertmanager</text>
</g>
<!-- prometheus&#45;&gt;alertmanager -->
<g id="edge2" class="edge">
<title>prometheus-&gt;alertmanager</title>
<path fill="none" stroke="#000000" d="M87.3281,-216.2022C92.5745,-207.8079 98.9409,-197.6218 104.7321,-188.3558"/>
<polygon fill="#000000" stroke="#000000" points="107.7208,-190.1776 110.0529,-179.8425 101.7848,-186.4675 107.7208,-190.1776"/>
</g>
<!-- alertmanager&#45;&gt;webhook -->
<g id="edge4" class="edge">
<title>alertmanager-&gt;webhook</title>
<path fill="none" stroke="#000000" d="M110.0809,-144.2022C104.8344,-135.8079 98.4681,-125.6218 92.6769,-116.3558"/>
<polygon fill="#000000" stroke="#000000" points="95.6241,-114.4675 87.3561,-107.8425 89.6881,-118.1776 95.6241,-114.4675"/>
</g>
</g>
</svg>